<svg width="7" height="11" viewBox="0 0 7 11" fill="none" xmlns="http://www.w3.org/2000/svg">
<path opacity="0.4" d="M6.06187 6.16666C6.11152 6.16664 6.16023 6.179 6.20268 6.20239C6.24512 6.22578 6.27966 6.25931 6.30254 6.29931C6.32541 6.33931 6.33574 6.38424 6.33239 6.4292C6.32904 6.47417 6.31214 6.51743 6.28354 6.55427L3.55413 10.0629C3.5291 10.095 3.49595 10.1211 3.45748 10.1392C3.419 10.1572 3.37632 10.1667 3.33301 10.1667C3.28969 10.1667 3.24701 10.1572 3.20854 10.1392C3.17006 10.1211 3.13692 10.095 3.11188 10.0629L0.382477 6.55427C0.353876 6.51743 0.336977 6.47417 0.333626 6.4292C0.330275 6.38424 0.340601 6.33931 0.363476 6.29931C0.386352 6.25931 0.420897 6.22578 0.46334 6.20239C0.505783 6.179 0.554491 6.16664 0.604146 6.16666L6.06187 6.16666Z" fill="#8A92A6"/>
<path d="M0.333626 4.52703C0.336977 4.47458 0.353876 4.4241 0.382477 4.38112L3.11188 0.287733C3.13692 0.250309 3.17006 0.219785 3.20854 0.19872C3.24701 0.177655 3.28969 0.166661 3.33301 0.166661C3.37632 0.166661 3.419 0.177655 3.45748 0.19872C3.49595 0.219785 3.5291 0.250309 3.55413 0.287733L6.28354 4.38112C6.31214 4.4241 6.32904 4.47457 6.33239 4.52703C6.33574 4.57949 6.32541 4.63191 6.30254 4.67858C6.27966 4.72524 6.24512 4.76436 6.20268 4.79165C6.16023 4.81894 6.11152 4.83336 6.06187 4.83333L0.604146 4.83333C0.554491 4.83336 0.505783 4.81894 0.46334 4.79165C0.420897 4.76436 0.386352 4.72525 0.363476 4.67858C0.340601 4.63191 0.330275 4.57949 0.333626 4.52703Z" fill="#8A92A6"/>
</svg>
