<svg width="13" height="14" viewBox="0 0 13 14" fill="none" xmlns="http://www.w3.org/2000/svg">
<path d="M3.16667 3V0.999999C3.16667 0.823188 3.2369 0.653618 3.36193 0.528594C3.48695 0.40357 3.65652 0.333332 3.83333 0.333332H11.8333C12.0101 0.333332 12.1797 0.40357 12.3047 0.528594C12.4298 0.653618 12.5 0.823188 12.5 0.999999V10.3333C12.5 10.5101 12.4298 10.6797 12.3047 10.8047C12.1797 10.9298 12.0101 11 11.8333 11H9.83333V13C9.83333 13.368 9.53333 13.6667 9.162 13.6667H1.17133C1.08342 13.6672 0.996265 13.6503 0.914882 13.6171C0.833498 13.5838 0.759489 13.5348 0.697106 13.4729C0.634723 13.4109 0.585195 13.3372 0.55137 13.2561C0.517544 13.1749 0.500086 13.0879 0.5 13L0.502 3.66667C0.502 3.29867 0.802 3 1.17333 3H3.16667ZM1.83533 4.33333L1.83333 12.3333H8.5V4.33333H1.83533ZM4.5 3H9.83333V9.66667H11.1667V1.66667H4.5V3Z" fill="#08B1BA"/>
</svg>
