<svg width="16" height="11" viewBox="0 0 16 11" fill="none" xmlns="http://www.w3.org/2000/svg">
<path fill-rule="evenodd" clip-rule="evenodd" d="M0.5 1.33333C0.5 0.873096 0.873096 0.5 1.33333 0.5H14.6667C15.1269 0.5 15.5 0.873096 15.5 1.33333C15.5 1.79357 15.1269 2.16667 14.6667 2.16667H1.33333C0.873096 2.16667 0.5 1.79357 0.5 1.33333ZM6.33333 10.5C5.8731 10.5 5.5 10.1269 5.5 9.66667C5.5 9.20643 5.8731 8.83333 6.33333 8.83333H9.66667C10.1269 8.83333 10.5 9.20643 10.5 9.66667C10.5 10.1269 10.1269 10.5 9.66667 10.5H6.33333ZM13 5.5C13 5.03976 12.6269 4.66667 12.1667 4.66667H3.83333C3.3731 4.66667 3 5.03976 3 5.5C3 5.96024 3.3731 6.33333 3.83333 6.33333H12.1667C12.6269 6.33333 13 5.96024 13 5.5Z" fill="#202020"/>
</svg>
