<svg width="24" height="25" viewBox="0 0 24 25" fill="none" xmlns="http://www.w3.org/2000/svg">
<path d="M19.4298 13.48C19.4698 13.16 19.4998 12.84 19.4998 12.5C19.4998 12.16 19.4698 11.84 19.4298 11.52L21.5398 9.87C21.7298 9.72 21.7798 9.45 21.6598 9.23L19.6598 5.77C19.5398 5.55 19.2698 5.47 19.0498 5.55L16.5598 6.55C16.0398 6.15 15.4798 5.82 14.8698 5.57L14.4898 2.92C14.4598 2.68 14.2498 2.5 13.9998 2.5H9.99984C9.74984 2.5 9.53984 2.68 9.50984 2.92L9.12984 5.57C8.51984 5.82 7.95984 6.16 7.43984 6.55L4.94984 5.55C4.71984 5.46 4.45984 5.55 4.33984 5.77L2.33984 9.23C2.20984 9.45 2.26984 9.72 2.45984 9.87L4.56984 11.52C4.52984 11.84 4.49984 12.17 4.49984 12.5C4.49984 12.83 4.52984 13.16 4.56984 13.48L2.45984 15.13C2.26984 15.28 2.21984 15.55 2.33984 15.77L4.33984 19.23C4.45984 19.45 4.72984 19.53 4.94984 19.45L7.43984 18.45C7.95984 18.85 8.51984 19.18 9.12984 19.43L9.50984 22.08C9.53984 22.32 9.74984 22.5 9.99984 22.5H13.9998C14.2498 22.5 14.4598 22.32 14.4898 22.08L14.8698 19.43C15.4798 19.18 16.0398 18.84 16.5598 18.45L19.0498 19.45C19.2798 19.54 19.5398 19.45 19.6598 19.23L21.6598 15.77C21.7798 15.55 21.7298 15.28 21.5398 15.13L19.4298 13.48ZM11.9998 16C10.0698 16 8.49984 14.43 8.49984 12.5C8.49984 10.57 10.0698 9 11.9998 9C13.9298 9 15.4998 10.57 15.4998 12.5C15.4998 14.43 13.9298 16 11.9998 16Z" fill="#838897"/>
</svg>
