<svg width="44" height="44" viewBox="0 0 44 44" fill="none" xmlns="http://www.w3.org/2000/svg">
<rect width="44" height="44" rx="22" fill="#08B1BA" fill-opacity="0.07"/>
<g clip-path="url(#clip0_19_4187)">
<path d="M32 17H33V27H32V30C32 30.2652 31.8946 30.5196 31.7071 30.7071C31.5196 30.8946 31.2652 31 31 31H13C12.7348 31 12.4804 30.8946 12.2929 30.7071C12.1054 30.5196 12 30.2652 12 30V14C12 13.7348 12.1054 13.4804 12.2929 13.2929C12.4804 13.1054 12.7348 13 13 13H31C31.2652 13 31.5196 13.1054 31.7071 13.2929C31.8946 13.4804 32 13.7348 32 14V17ZM30 27H24C22.6739 27 21.4021 26.4732 20.4645 25.5355C19.5268 24.5979 19 23.3261 19 22C19 20.6739 19.5268 19.4021 20.4645 18.4645C21.4021 17.5268 22.6739 17 24 17H30V15H14V29H30V27ZM31 25V19H24C23.2044 19 22.4413 19.3161 21.8787 19.8787C21.3161 20.4413 21 21.2044 21 22C21 22.7956 21.3161 23.5587 21.8787 24.1213C22.4413 24.6839 23.2044 25 24 25H31ZM24 21H27V23H24V21Z" fill="#08B1BA"/>
</g>
<defs>
<clipPath id="clip0_19_4187">
<rect width="24" height="24" fill="white" transform="translate(10 10)"/>
</clipPath>
</defs>
</svg>
