<?xml version="1.0" encoding="UTF-8"?>
<!DOCTYPE svg PUBLIC "-//W3C//DTD SVG 1.1//EN" "http://www.w3.org/Graphics/SVG/1.1/DTD/svg11.dtd">
<svg xmlns="http://www.w3.org/2000/svg" version="1.1" width="512px" height="512px" style="shape-rendering:geometricPrecision; text-rendering:geometricPrecision; image-rendering:optimizeQuality; fill-rule:evenodd; clip-rule:evenodd" xmlns:xlink="http://www.w3.org/1999/xlink">
<g><path style="opacity:0.982" fill="#dfad54" d="M 397.5,71.5 C 397.5,75.8333 397.5,80.1667 397.5,84.5C 354.478,87.3534 327.645,109.687 317,151.5C 316.5,158.826 316.334,166.159 316.5,173.5C 315.532,171.393 315.198,169.059 315.5,166.5C 311.167,166.5 306.833,166.5 302.5,166.5C 303.548,127.98 320.882,99.48 354.5,81C 368.059,74.3215 382.393,71.1548 397.5,71.5 Z"/></g>
<g><path style="opacity:0.965" fill="#fecb65" d="M 397.5,71.5 C 438.271,72.7959 467.438,91.7959 485,128.5C 490.041,140.665 492.541,153.332 492.5,166.5C 488.167,166.5 483.833,166.5 479.5,166.5C 479.802,163.941 479.468,161.607 478.5,159.5C 473.969,122.129 453.636,97.9623 417.5,87C 410.865,85.8383 404.199,85.005 397.5,84.5C 397.5,80.1667 397.5,75.8333 397.5,71.5 Z"/></g>
<g><path style="opacity:1" fill="#c6903a" d="M 397.5,84.5 C 404.199,85.005 410.865,85.8383 417.5,87C 453.636,97.9623 473.969,122.129 478.5,159.5C 480.106,196.132 464.773,222.966 432.5,240C 426.898,242.201 421.231,244.201 415.5,246C 409.523,246.831 403.523,247.331 397.5,247.5C 359.529,245.703 333.696,227.037 320,191.5C 318.079,185.642 316.913,179.642 316.5,173.5C 316.334,166.159 316.5,158.826 317,151.5C 327.645,109.687 354.478,87.3534 397.5,84.5 Z"/></g>
<g><path style="opacity:1" fill="#fefdfb" d="M 392.5,102.5 C 393.978,102.238 395.311,102.571 396.5,103.5C 397.833,108.5 399.167,113.5 400.5,118.5C 407.2,119.168 413.867,120.001 420.5,121C 430.823,125.476 434.99,133.309 433,144.5C 431.752,147.579 429.919,150.246 427.5,152.5C 446.533,158.229 452.366,170.229 445,188.5C 439.325,195.267 432.159,199.933 423.5,202.5C 423.167,203.167 422.833,203.833 422.5,204.5C 424.811,209.714 425.811,215.048 425.5,220.5C 422.452,221.346 419.452,222.346 416.5,223.5C 414.683,217.905 413.017,212.238 411.5,206.5C 408.315,205.542 405.315,206.042 402.5,208C 404.699,213.964 406.032,220.131 406.5,226.5C 403.164,226.467 399.997,227.134 397,228.5C 395.358,223.934 394.025,219.268 393,214.5C 392.477,212.777 391.477,211.444 390,210.5C 383.21,212.406 376.377,214.072 369.5,215.5C 369.728,211.61 369.394,207.776 368.5,204C 370.994,201.717 373.994,200.383 377.5,200C 378.804,199.196 379.471,198.029 379.5,196.5C 375.643,179.738 371.476,163.071 367,146.5C 365.491,144.119 363.325,143.119 360.5,143.5C 357.51,143.623 354.677,144.29 352,145.5C 350.523,141.635 349.357,137.635 348.5,133.5C 355.741,131.524 363.074,129.857 370.5,128.5C 368.403,122.349 367.07,116.016 366.5,109.5C 370.136,108.674 373.803,108.008 377.5,107.5C 378.347,112.888 379.513,118.221 381,123.5C 383.75,124.291 386.583,124.291 389.5,123.5C 388.801,117.368 387.467,111.368 385.5,105.5C 388.102,104.868 390.436,103.868 392.5,102.5 Z"/></g>
<g><path style="opacity:1" fill="#c7913c" d="M 393.5,134.5 C 398.599,134.175 403.599,134.675 408.5,136C 414.841,141.122 415.175,146.789 409.5,153C 403.757,156.474 397.591,158.641 391,159.5C 388.6,153.002 386.766,146.336 385.5,139.5C 385.608,138.558 385.941,137.725 386.5,137C 389.004,136.302 391.337,135.469 393.5,134.5 Z"/></g>
<g><path style="opacity:0.996" fill="#e0ae54" d="M 153.5,145.5 C 199.172,145.167 244.838,145.5 290.5,146.5C 284.614,189.016 297.948,224.183 330.5,252C 299.539,277.959 268.872,304.292 238.5,331C 224.833,339.667 211.167,339.667 197.5,331C 137.421,280.631 77.7547,229.797 18.5,178.5C 22.09,163.076 31.4233,152.909 46.5,148C 82.2969,146.867 117.964,146.033 153.5,145.5 Z"/></g>
<g><path style="opacity:0.964" fill="#fecb65" d="M 302.5,166.5 C 306.833,166.5 311.167,166.5 315.5,166.5C 315.198,169.059 315.532,171.393 316.5,173.5C 316.913,179.642 318.079,185.642 320,191.5C 333.696,227.037 359.529,245.703 397.5,247.5C 397.5,252.167 397.5,256.833 397.5,261.5C 349.679,258.496 318.845,234.162 305,188.5C 303.369,181.253 302.536,173.92 302.5,166.5 Z"/></g>
<g><path style="opacity:1" fill="#c7913c" d="M 405.5,166.5 C 411.762,165.872 417.762,166.705 423.5,169C 428.182,176.18 427.182,182.513 420.5,188C 413.86,190.867 407.027,193.033 400,194.5C 397.765,187.068 395.599,179.568 393.5,172C 393.645,171.228 393.978,170.561 394.5,170C 398.333,168.966 401.999,167.8 405.5,166.5 Z"/></g>
<g><path style="opacity:0.982" fill="#dfad54" d="M 478.5,159.5 C 479.468,161.607 479.802,163.941 479.5,166.5C 483.833,166.5 488.167,166.5 492.5,166.5C 490.783,207.456 471.449,236.623 434.5,254C 422.627,258.741 410.294,261.241 397.5,261.5C 397.5,256.833 397.5,252.167 397.5,247.5C 403.523,247.331 409.523,246.831 415.5,246C 421.231,244.201 426.898,242.201 432.5,240C 464.773,222.966 480.106,196.132 478.5,159.5 Z"/></g>
<g><path style="opacity:0.992" fill="#c69038" d="M 17.5,196.5 C 73.9939,242.938 129.994,290.104 185.5,338C 201.768,350.518 219.434,352.852 238.5,345C 241.167,343.333 243.833,341.667 246.5,340C 277.647,312.93 308.98,286.097 340.5,259.5C 364.001,273.467 389.334,278.467 416.5,274.5C 416.667,319.501 416.5,364.501 416,409.5C 414.913,413.766 413.246,417.766 411,421.5C 378.5,388.333 346,355.167 313.5,322C 305.758,318.752 302.258,321.252 303,329.5C 336,363.167 369,396.833 402,430.5C 402.688,431.332 402.521,431.998 401.5,432.5C 396.514,436.444 390.848,438.944 384.5,440C 272.833,440.667 161.167,440.667 49.5,440C 42.6734,438.587 36.6734,435.587 31.5,431C 64.3333,397.5 97.1667,364 130,330.5C 132.522,322.685 129.689,319.518 121.5,321C 88.6667,354.5 55.8333,388 23,421.5C 20.3399,417.186 18.6732,412.519 18,407.5C 17.5,337.167 17.3333,266.834 17.5,196.5 Z"/></g>
</svg>
